<svg width="1167" height="925" xmlns="http://www.w3.org/2000/svg" xmlns:xlink="http://www.w3.org/1999/xlink" overflow="hidden"><defs><clipPath id="clip0"><rect x="1859" y="633" width="1167" height="925"/></clipPath></defs><g clip-path="url(#clip0)" transform="translate(-1859 -633)"><text font-family="Calibri,Calibri_MSFontService,sans-serif" font-weight="400" font-size="440" transform="matrix(1 0 0 1 2123 1178)">X<tspan font-size="440" x="249.219" y="0">GI</tspan></text><path d="M2100.5 893C2100.5 867.319 2121.54 846.5 2147.5 846.5 2173.46 846.5 2194.5 867.319 2194.5 893 2194.5 918.681 2173.46 939.5 2147.5 939.5 2121.54 939.5 2100.5 918.681 2100.5 893Z" stroke="#000000" stroke-width="4.58333" stroke-miterlimit="8" fill="#D6DCE5" fill-rule="evenodd"/><path d="M2283.5 1186C2283.5 1160.32 2304.32 1139.5 2330 1139.5 2355.68 1139.5 2376.5 1160.32 2376.5 1186 2376.5 1211.68 2355.68 1232.5 2330 1232.5 2304.32 1232.5 2283.5 1211.68 2283.5 1186Z" stroke="#000000" stroke-width="4.58333" stroke-miterlimit="8" fill="#D6DCE5" fill-rule="evenodd"/><path d="M2090.5 1186C2090.5 1160.32 2111.32 1139.5 2137 1139.5 2162.68 1139.5 2183.5 1160.32 2183.5 1186 2183.5 1211.68 2162.68 1232.5 2137 1232.5 2111.32 1232.5 2090.5 1211.68 2090.5 1186Z" stroke="#000000" stroke-width="4.58333" stroke-miterlimit="8" fill="#D6DCE5" fill-rule="evenodd"/><path d="M2272.5 893C2272.5 867.319 2293.32 846.5 2319 846.5 2344.68 846.5 2365.5 867.319 2365.5 893 2365.5 918.681 2344.68 939.5 2319 939.5 2293.32 939.5 2272.5 918.681 2272.5 893Z" stroke="#000000" stroke-width="4.58333" stroke-miterlimit="8" fill="#D6DCE5" fill-rule="evenodd"/><path d="M2660.5 893C2660.5 867.319 2681.54 846.5 2707.5 846.5 2733.46 846.5 2754.5 867.319 2754.5 893 2754.5 918.681 2733.46 939.5 2707.5 939.5 2681.54 939.5 2660.5 918.681 2660.5 893Z" stroke="#000000" stroke-width="4.58333" stroke-miterlimit="8" fill="#D6DCE5" fill-rule="evenodd"/><path d="M2660.5 1186C2660.5 1160.32 2681.54 1139.5 2707.5 1139.5 2733.46 1139.5 2754.5 1160.32 2754.5 1186 2754.5 1211.68 2733.46 1232.5 2707.5 1232.5 2681.54 1232.5 2660.5 1211.68 2660.5 1186Z" stroke="#000000" stroke-width="4.58333" stroke-miterlimit="8" fill="#D6DCE5" fill-rule="evenodd"/><path d="M2287.14 1237.44C2222.38 1108.65 2302.54 937.538 2466.18 855.245 2629.83 772.952 2814.99 810.642 2879.75 939.429 2944.52 1068.22 2864.36 1239.33 2700.71 1321.62 2537.07 1403.92 2351.91 1366.23 2287.14 1237.44Z" fill="#4472C4" fill-rule="evenodd" fill-opacity="0.301961"/><path d="M2003.57 1024.77C2013.46 880.951 2121.42 771.236 2244.72 779.71 2368.02 788.184 2459.95 911.639 2450.07 1055.45 2440.19 1199.27 2332.22 1308.98 2208.92 1300.51 2085.63 1292.03 1993.69 1168.58 2003.57 1024.77Z" fill="#7030A0" fill-rule="evenodd" fill-opacity="0.301961"/></g></svg>